<?xml version="1.0" encoding="UTF-8"?>
<svg width="1200px" height="630px" viewBox="0 0 1200 630" version="1.1" xmlns="http://www.w3.org/2000/svg" xmlns:xlink="http://www.w3.org/1999/xlink">
    <!-- Generator: Sketch 63.1 (92452) - https://sketch.com -->
    <title>og_image</title>
    <desc>Created with Sketch.</desc>
    <defs>
        <linearGradient x1="49.9983096%" y1="100.00595%" x2="49.9983096%" y2="-0.00150157813%" id="linearGradient-1">
            <stop stop-color="#808080" stop-opacity="0.25" offset="0%"></stop>
            <stop stop-color="#808080" stop-opacity="0.12" offset="54%"></stop>
            <stop stop-color="#808080" stop-opacity="0.1" offset="100%"></stop>
        </linearGradient>
    </defs>
    <g id="og_image" stroke="none" stroke-width="1" fill="none" fill-rule="evenodd">
        <rect fill="#FFFFFF" x="0" y="0" width="1200" height="630"></rect>
        <g id="undraw_book_lover_mkck" transform="translate(300.000000, 76.000000)">
            <path d="M352.025795,80.7060249 C314.083544,79.3871892 277.941088,67.1425331 243.434276,53.7431631 C208.927464,40.3437931 174.748953,25.4966347 137.715394,18.3983682 C113.895961,13.8322662 86.6528157,13.1875021 67.464777,25.953831 C48.9919661,38.2629636 43.0239174,59.452256 39.8171171,79.1351451 C37.4017575,93.9412731 35.9830269,109.521118 42.6018157,123.383546 C47.1921714,133.008115 55.3469413,141.096974 60.9808262,150.346408 C80.6026917,182.42049 66.7378241,221.973836 45.4744521,253.291786 C35.5081625,267.986546 23.929679,282.013095 16.2380485,297.639832 C8.54641789,313.266569 4.98200373,331.196872 11.7121805,347.151852 C18.3895945,362.97788 34.2946202,374.841539 51.5187136,383.194165 C86.5121152,400.163183 127.731516,405.016498 167.954289,407.765538 C256.96498,413.855628 346.444673,411.217957 435.689865,408.580285 C468.719321,407.601416 501.889478,406.610824 534.379582,401.505465 C552.424429,398.668503 571.049665,394.172739 584.152405,383.305533 C600.778521,369.513443 604.899875,346.155399 593.761081,328.863998 C575.065494,299.855476 523.410801,292.651703 510.325649,261.515459 C503.138196,244.382319 510.524975,225.297302 520.971991,209.400936 C543.39028,175.310501 580.963192,145.399309 582.944725,106.432112 C584.304831,79.6626793 566.236534,52.8639393 538.307473,40.1972558 C509.035894,26.8740852 468.432058,28.5621948 446.846247,50.5369271 C424.603833,73.1798695 385.524253,81.8666002 352.025795,80.7060249 Z" id="Path" fill="#FF0000" fill-rule="nonzero" opacity="0.1"></path>
            <polygon id="Path" fill="#FF0000" fill-rule="nonzero" points="255.266722 405.135952 54.3998424 404.152493 34.4410876 357.176131 105.01562 352.035054 92.7152525 300.53007 232.303298 282.374357 98.636565 235.745444 110.443979 232.930514 325.377644 268.117146 313.540887 348.49578 296.622013 392.668989"></polygon>
            <path d="M58.0060423,384.475602 C58.0060423,384.475602 70.4682779,382.565435 77.9456193,391.002007 C77.9456193,391.002007 72.4622356,395.140702 60.6646526,389.410201 L58.0060423,384.475602 Z" id="Path" fill="#FF0000" fill-rule="nonzero"></path>
            <path d="M56.7109703,385.196375 C56.7109703,385.196375 48.86841,394.631199 52.7311636,405.135952 C52.7311636,405.135952 59.1222649,402.635637 59.8187311,389.899483 L56.7109703,385.196375 Z" id="Path" fill="#FF0000" fill-rule="nonzero"></path>
            <path d="M49.8489426,368.240253 C49.8489426,368.240253 54.7432024,359.619384 74.3202417,371.686362 C74.3202417,371.686362 71.7099698,377.482093 63.0634441,377.012168 C54.4169184,376.542244 52.1329305,372.782852 49.8489426,368.240253 Z" id="Path" fill="#FF0000" fill-rule="nonzero"></path>
            <path d="M48.1399827,367.985316 C48.1399827,367.985316 38.1306212,366.842834 37.1601208,389.635344 C37.1601208,389.635344 43.5057,390.943485 48.0136454,383.734426 C52.5215908,376.525366 50.6724718,372.480981 48.1399827,367.985316 Z" id="Path" fill="#FF0000" fill-rule="nonzero"></path>
            <path d="M42.5981873,349.175115 C42.5981873,349.175115 48.4726418,333.75633 69.7885196,344.724332 C69.7885196,344.724332 64.9211145,358.871465 44.7801276,354.420682 L42.5981873,349.175115 Z" id="Path" fill="#FF0000" fill-rule="nonzero"></path>
            <path d="M36.2537764,325.508946 C36.2537764,325.508946 47.0407607,309.696588 66.163142,324.356442 C66.163142,324.356442 59.4621366,339.200696 37.888168,331.133167 L36.2537764,325.508946 Z" id="Path" fill="#FF0000" fill-rule="nonzero"></path>
            <path d="M33.5347432,302.922813 C33.5347432,302.922813 46.2000671,288.189384 65.2567976,302.922813 C65.2567976,302.922813 53.2494126,315.85036 33.5347432,306.686529 L33.5347432,302.922813 Z" id="Path" fill="#FF0000" fill-rule="nonzero"></path>
            <path d="M31.7220544,280.665432 C31.7220544,280.665432 44.439649,265.578796 62.5377644,279.862952 C62.5377644,279.862952 48.1897089,293.18413 31.7220544,284.196347 L31.7220544,280.665432 Z" id="Path" fill="#FF0000" fill-rule="nonzero"></path>
            <path d="M32.6283988,261.109489 C32.6283988,261.109489 45.83722,241.466494 62.5377644,254.778276 C62.5377644,254.778276 48.3870968,271.661511 32.6283988,264.843282 L32.6283988,261.109489 Z" id="Path" fill="#FF0000" fill-rule="nonzero"></path>
            <path d="M36.2537764,238.603049 C36.2537764,238.603049 50.514238,219.076069 67.0694864,234.046753 C67.0694864,234.046753 50.1864113,250.970136 36.2537764,242.182995 L36.2537764,238.603049 Z" id="Path" fill="#FF0000" fill-rule="nonzero"></path>
            <path d="M40.6231241,218.541772 C40.6231241,218.541772 57.6517709,200.132768 72.5075529,207.466057 C72.5075529,207.466057 54.7644587,227.017608 39.8791541,223.426745 L40.6231241,218.541772 Z" id="Path" fill="#FF0000" fill-rule="nonzero"></path>
            <path d="M45.8109311,198.786594 C45.8109311,198.786594 65.5540785,176.163314 77.0392749,183.720004 C77.0392749,183.720004 62.4929415,201.266499 44.4108761,203.021148 L45.8109311,198.786594 Z" id="Path" fill="#FF0000" fill-rule="nonzero"></path>
            <path d="M55.7577008,175.627566 C55.7577008,175.627566 72.7691781,157.559334 85.1963746,162.044924 C85.1963746,162.044924 70.6434734,180.788283 53.4743202,181.268882 L55.7577008,175.627566 Z" id="Path" fill="#FF0000" fill-rule="nonzero"></path>
            <path d="M62.4577928,155.514365 C62.4577928,155.514365 81.4643682,137.722742 89.7280967,140.85275 C89.7280967,140.85275 76.0103074,160.621219 61.6314199,159.468058 L62.4577928,155.514365 Z" id="Path" fill="#FF0000" fill-rule="nonzero"></path>
            <path d="M69.7885196,135.615746 C69.7885196,135.615746 86.2055156,114.463407 95.1661631,116.102669 C95.1661631,116.102669 85.2105462,134.960041 69.7885196,137.76435 L69.7885196,135.615746 Z" id="Path" fill="#FF0000" fill-rule="nonzero"></path>
            <path d="M78.536205,109.97004 C78.536205,109.97004 92.8622941,94.2257586 100.60423,94.2598187 C100.60423,94.2598187 89.2953903,115.297737 77.9456193,115.104416 L78.536205,109.97004 Z" id="Path" fill="#FF0000" fill-rule="nonzero"></path>
            <path d="M83.3088207,92.5513105 L96.9746971,58.9123867 C96.9746971,58.9123867 97.6559702,89.3203875 81.570997,98.7915408 L83.3088207,92.5513105 Z" id="Path" fill="#FF0000" fill-rule="nonzero"></path>
            <path d="M88.9056901,55.3579157 C88.9056901,55.3579157 90.9621669,26.7956519 89.6401461,24.4712991 C89.6401461,24.4712991 98.5165714,48.2188321 88.8217523,67.9758308 L88.9056901,55.3579157 Z" id="Path" fill="#FF0000" fill-rule="nonzero"></path>
            <path d="M41.8115172,348.959485 C41.8115172,348.959485 27.4355391,339.916523 18.1268882,362.039377 C18.1268882,362.039377 30.9211572,370.660214 43.5045317,354.601675 L41.8115172,348.959485 Z" id="Path" fill="#FF0000" fill-rule="nonzero"></path>
            <path d="M35.5373364,324.078454 C35.5373364,324.078454 17.7103977,315.799081 9.06344411,339.226148 C9.06344411,339.226148 22.8334216,348.87436 37.1601208,330.000044 L35.5373364,324.078454 Z" id="Path" fill="#FF0000" fill-rule="nonzero"></path>
            <path d="M32.6283988,303.829158 C32.6283988,303.829158 19.9630749,289.095728 0.906344411,303.829158 C0.906344411,303.829158 12.9137294,316.756705 32.6283988,307.592874 L32.6283988,303.829158 Z" id="Path" fill="#FF0000" fill-rule="nonzero"></path>
            <path d="M30.81571,280.665432 C30.81571,280.665432 18.0981154,265.578796 0,279.862952 C0,279.862952 14.3480554,293.18413 30.81571,284.196347 L30.81571,280.665432 Z" id="Path" fill="#FF0000" fill-rule="nonzero"></path>
            <path d="M32.6283988,261.313169 C32.6283988,261.313169 23.7752296,238.144786 4.53172205,248.108106 C4.53172205,248.108106 14.933618,268.65135 31.8424778,265.159304 L32.6283988,261.313169 Z" id="Path" fill="#FF0000" fill-rule="nonzero"></path>
            <path d="M36.2537764,238.435225 C36.2537764,238.435225 27.5208706,214.955084 8.1570997,225.840723 C8.1570997,225.840723 20.0150441,247.362665 35.3936741,242.059717 L36.2537764,238.435225 Z" id="Path" fill="#FF0000" fill-rule="nonzero"></path>
            <path d="M42.5981873,217.551324 C42.5981873,217.551324 39.0794384,192.5691 22.6586103,190.332326 C22.6586103,190.332326 26.1421717,216.677861 40.3872401,222.054381 L42.5981873,217.551324 Z" id="Path" fill="#FF0000" fill-rule="nonzero"></path>
            <path d="M46.223565,198.767674 C46.223565,198.767674 44.892316,168.722356 31.7220544,167.673716 C31.7220544,167.673716 32.165804,190.478701 44.7387104,203.021148 L46.223565,198.767674 Z" id="Path" fill="#FF0000" fill-rule="nonzero"></path>
            <path d="M56.1933535,175.993645 C56.1933535,175.993645 52.0960517,150.810084 38.9728097,147.734139 C38.9728097,147.734139 40.5998542,172.121992 54.8929055,182.175227 L56.1933535,175.993645 Z" id="Path" fill="#FF0000" fill-rule="nonzero"></path>
            <path d="M64.3504532,155.251438 C64.3504532,155.251438 64.2172726,128.94057 56.4001549,125.075529 C56.4001549,125.075529 51.5535419,148.897048 62.0863843,158.610272 L64.3504532,155.251438 Z" id="Path" fill="#FF0000" fill-rule="nonzero"></path>
            <path d="M70.694864,135.086274 C70.694864,135.086274 69.5474792,108.040614 61.0604735,104.229607 C61.0604735,104.229607 58.1586217,125.633076 69.4260628,136.858006 L70.694864,135.086274 Z" id="Path" fill="#FF0000" fill-rule="nonzero"></path>
            <path d="M79.7583082,111.696029 C79.7583082,111.696029 79.7093159,90.231773 73.5975262,85.1963746 C73.5975262,85.1963746 67.5224808,108.708436 76.5676845,116.012085 L79.7583082,111.696029 Z" id="Path" fill="#FF0000" fill-rule="nonzero"></path>
            <path d="M83.1133511,91.3694901 L77.4069387,55.2870091 C77.4069387,55.2870091 69.6553858,84.8537839 83.3836858,97.8851964 L83.1133511,91.3694901 Z" id="Path" fill="#FF0000" fill-rule="nonzero"></path>
            <path d="M83.1988958,55.0360214 C83.1988958,55.0360214 68.5876774,30.7906112 68.8867032,28.0966767 C68.8867032,28.0966767 70.4404644,53.5075064 88.8217523,66.163142 L83.1988958,55.0360214 Z" id="Path" fill="#FF0000" fill-rule="nonzero"></path>
            <path d="M84.971545,48.0362538 C84.971545,48.0362538 71.3974566,13.6590495 65.2567976,10.8761329 C65.2567976,10.8761329 84.6483524,20.8618923 86.102719,47.0540479 L84.971545,48.0362538 Z" id="Path" fill="#FF0000" fill-rule="nonzero"></path>
            <path d="M77.9313612,115.10574 L77.0392749,114.819849 C88.0379787,77.0530935 90.7807286,52.9740881 84.7688426,46.9353747 L85.4060471,46.223565 C91.783633,52.5948453 89.1960287,76.4112979 77.9313612,115.10574 Z" id="Path" fill="#444053" fill-rule="nonzero"></path>
            <path d="M44.9057247,203.927492 L43.5045317,203.424709 C44.7467658,199.917053 46.0831978,196.356162 47.4843907,192.848506 C59.6830119,162.302919 70.0683244,133.886769 76.7269347,112.071873 L77.9456193,111.480363 C71.2752343,133.336665 61.0724301,162.841194 48.8620342,193.428186 C47.4667286,196.870776 46.1361841,200.413922 44.9057247,203.927492 Z" id="Path" fill="#444053" fill-rule="nonzero"></path>
            <path d="M74.6633705,413.293051 C74.4767597,413.087064 55.7165426,391.764429 42.6362918,355.363519 C34.9720423,334.05228 30.7066696,311.648778 29.9992417,288.988504 C29.1011772,260.662298 34.9910806,229.03441 45.079727,200.302115 L46.1760655,201.596893 C23.5261796,266.082709 32.5243191,321.340291 44.4615787,354.616079 C57.4018714,390.687409 75.9521513,411.77463 76.1329305,411.986503 L74.6633705,413.293051 Z" id="Path" fill="#444053" fill-rule="nonzero"></path>
            <path d="M369.78852,367.975831 C369.78852,367.975831 356.450217,384.183282 367.040841,408.684824 L260.546232,454.665486 L250.326279,456.797583 L245.619335,436.296651 L248.767104,410.424475 L248.767104,396.284689 L369.78852,367.975831 Z" id="Path" fill="#D5D6DB" fill-rule="nonzero"></path>
            <polygon id="Path" fill="#FF0000" fill-rule="nonzero" points="35.347432 356.937909 182.30889 329.909366 377.039275 361.204951 256.088798 405.135952"></polygon>
            <polygon id="Path" fill="#FF0000" fill-rule="nonzero" points="35.347432 356.937909 182.30889 329.909366 377.039275 361.204951 256.088798 405.135952"></polygon>
            <path d="M34.5213978,358.006042 C34.5213978,358.006042 20.811779,383.956318 36.6103154,407.924809 L253.986474,454.984894 C253.986474,454.984894 240.493353,434.313532 254.682779,405.621495 L34.5213978,358.006042 Z" id="Path" fill="#FF0000" fill-rule="nonzero"></path>
            <path d="M34.5213978,358.006042 C34.5213978,358.006042 20.811779,383.956318 36.6103154,407.924809 L253.986474,454.984894 C253.986474,454.984894 240.493353,434.313532 254.682779,405.621495 L34.5213978,358.006042 Z" id="Path" fill="#000000" fill-rule="nonzero" opacity="0.1"></path>
            <path d="M40.7854985,366.163142 C40.7854985,366.163142 32.6283988,385.42169 40.7854985,397.885196" id="Path" fill="#000000" fill-rule="nonzero" opacity="0.1"></path>
            <path d="M254.198405,454.513035 L375.871934,402.416918 C375.871934,402.416918 382.677204,403.88856 378.277245,408.892142 C373.877286,413.895724 256.54505,459.516616 256.54505,459.516616 L36.2537764,407.126172 L254.198405,454.513035 Z" id="Path" fill="#FF0000" fill-rule="nonzero"></path>
            <path d="M254.198405,454.513035 L375.871934,402.416918 C375.871934,402.416918 382.677204,403.88856 378.277245,408.892142 C373.877286,413.895724 256.54505,459.516616 256.54505,459.516616 L36.2537764,407.126172 L254.198405,454.513035 Z" id="Path" fill="#000000" fill-rule="nonzero" opacity="0.1"></path>
            <path d="M244.712991,410.574018 C244.712991,410.574018 234.516616,424.712991 244.712991,445.92145" id="Path" fill="#000000" fill-rule="nonzero" opacity="0.1"></path>
            <polygon id="Rectangle" fill="#000000" fill-rule="nonzero" opacity="0.1" transform="translate(275.285010, 419.242533) rotate(-18.450000) translate(-275.285010, -419.242533) " points="247.550609 418.953063 303.019493 418.945245 303.019411 419.532004 247.550527 419.539821"></polygon>
            <polygon id="Rectangle" fill="#000000" fill-rule="nonzero" opacity="0.1" transform="translate(280.557396, 420.726202) rotate(-20.820000) translate(-280.557396, -420.726202) " points="246.763648 420.438098 314.351235 420.427556 314.351143 421.014307 246.763557 421.024849"></polygon>
            <polygon id="Rectangle" fill="#000000" fill-rule="nonzero" opacity="0.1" transform="translate(285.579732, 423.466794) rotate(-22.260000) translate(-285.579732, -423.466794) " points="246.409986 423.179867 324.749574 423.166974 324.749478 423.75372 246.409889 423.766614"></polygon>
            <polygon id="Rectangle" fill="#000000" fill-rule="nonzero" opacity="0.1" transform="translate(291.274767, 424.645496) rotate(-24.310000) translate(-291.274767, -424.645496) " points="246.186187 424.360068 336.36345 424.344185 336.363346 424.930924 246.186084 424.946807"></polygon>
            <polygon id="Rectangle" fill="#000000" fill-rule="nonzero" opacity="0.1" transform="translate(296.017749, 425.848827) rotate(-23.610000) translate(-296.017749, -425.848827) " points="246.703235 425.563952 345.332363 425.54696 345.332262 426.133701 246.703134 426.150694"></polygon>
            <polygon id="Rectangle" fill="#000000" fill-rule="nonzero" opacity="0.1" transform="translate(306.368067, 426.212928) rotate(-23.360000) translate(-306.368067, -426.212928) " points="247.354964 425.929641 365.381271 425.909472 365.38117 426.496214 247.354864 426.516384"></polygon>
            <polygon id="Path" fill="#FFFFFF" fill-rule="nonzero" opacity="0.3" points="88.8217523 359.588763 191.891948 338.066465 254.682779 349.990982 170.223782 377.039275"></polygon>
            <path d="M375.660665,361.63142 C375.660665,361.63142 380.999391,363.782324 377.866556,367.105384 C374.733721,370.428443 254.682779,405.135952 254.682779,405.135952 L375.660665,361.63142 Z" id="Path" fill="#FF0000" fill-rule="nonzero"></path>
            <path d="M427.794562,311.782477 C427.794562,311.782477 414.461511,327.981934 425.052637,352.486102 L318.552981,398.460701 L308.332545,400.60423 L303.625378,380.106001 L306.820367,354.243093 L306.820367,340.087603 L427.794562,311.782477 Z" id="Path" fill="#D5D6DB" fill-rule="nonzero"></path>
            <polygon id="Path" fill="#3A3768" fill-rule="nonzero" points="92.4471299 300.738638 239.402722 273.716012 434.138973 305.011598 313.188496 348.942598"></polygon>
            <path d="M92.5531649,300.906344 C92.5531649,300.906344 78.7839323,326.85662 94.6443964,350.825111 L312.872634,397.885196 C312.872634,397.885196 299.332497,377.196297 313.595166,348.515951 L92.5531649,300.906344 Z" id="Path" fill="#3A3768" fill-rule="nonzero"></path>
            <path d="M92.5531649,300.906344 C92.5531649,300.906344 78.7839323,326.85662 94.6443964,350.825111 L312.872634,397.885196 C312.872634,397.885196 299.332497,377.196297 313.595166,348.515951 L244.584525,333.649641 L92.5531649,300.906344 Z" id="Path" fill="#000000" fill-rule="nonzero" opacity="0.1"></path>
            <path d="M99.6978852,309.969789 C99.6978852,309.969789 91.5407855,329.222407 99.6978852,341.691843" id="Path" fill="#000000" fill-rule="nonzero" opacity="0.1"></path>
            <path d="M313.110234,398.319681 L434.789318,346.223565 C434.789318,346.223565 441.588704,347.695207 437.188756,352.698788 C432.788808,357.70237 315.456873,403.323263 315.456873,403.323263 L95.1661631,350.932818 L313.110234,398.319681 Z" id="Path" fill="#3A3768" fill-rule="nonzero"></path>
            <path d="M313.110234,398.319681 L434.789318,346.223565 C434.789318,346.223565 441.588704,347.695207 437.188756,352.698788 C432.788808,357.70237 315.456873,403.323263 315.456873,403.323263 L95.1661631,350.932818 L313.110234,398.319681 Z" id="Path" fill="#000000" fill-rule="nonzero" opacity="0.1"></path>
            <path d="M302.719033,353.47432 C302.719033,353.47432 292.522659,367.613293 302.719033,388.821752" id="Path" fill="#000000" fill-rule="nonzero" opacity="0.1"></path>
            <polygon id="Rectangle" fill="#000000" fill-rule="nonzero" opacity="0.1" transform="translate(333.524165, 362.811732) rotate(-18.450000) translate(-333.524165, -362.811732) " points="305.789764 362.522262 361.258648 362.514444 361.258565 363.101202 305.789681 363.10902"></polygon>
            <polygon id="Rectangle" fill="#000000" fill-rule="nonzero" opacity="0.1" transform="translate(338.803909, 364.292606) rotate(-20.820000) translate(-338.803909, -364.292606) " points="305.010161 364.004501 372.597748 363.993959 372.597656 364.58071 305.01007 364.591252"></polygon>
            <polygon id="Rectangle" fill="#000000" fill-rule="nonzero" opacity="0.1" transform="translate(343.817649, 367.025071) rotate(-22.260000) translate(-343.817649, -367.025071) " points="304.647903 366.738145 382.987491 366.725252 382.987394 367.311998 304.647806 367.324891"></polygon>
            <polygon id="Rectangle" fill="#000000" fill-rule="nonzero" opacity="0.1" transform="translate(349.519478, 368.204918) rotate(-24.310000) translate(-349.519478, -368.204918) " points="304.430898 367.91949 394.608161 367.903608 394.608057 368.490346 304.430794 368.506229"></polygon>
            <polygon id="Rectangle" fill="#000000" fill-rule="nonzero" opacity="0.1" transform="translate(354.254067, 369.400783) rotate(-23.610000) translate(-354.254067, -369.400783) " points="304.939553 369.115909 403.568681 369.098916 403.56858 369.685658 304.939452 369.70265"></polygon>
            <polygon id="Rectangle" fill="#000000" fill-rule="nonzero" opacity="0.1" transform="translate(364.608846, 369.764960) rotate(-23.360000) translate(-364.608846, -369.764960) " points="305.595743 369.481674 423.62205 369.461505 423.621949 370.048247 305.595643 370.068416"></polygon>
            <polygon id="Path" fill="#FFFFFF" fill-rule="nonzero" opacity="0.45" points="147.734139 303.39541 250.804335 281.873112 313.595166 293.797628 229.136168 320.845921"></polygon>
            <path d="M434.574924,305.438066 C434.574924,305.438066 439.908642,307.589261 436.781171,310.906906 C433.653699,314.224552 313.595166,348.942598 313.595166,348.942598 L434.574924,305.438066 Z" id="Path" fill="#3A3768" fill-rule="nonzero"></path>
            <path d="M434.138973,247.432024 C434.138973,247.432024 420.798141,276.520021 431.390773,301.016717 L324.875975,334.104532 L314.677625,336.253776 L309.969789,315.756899 L313.118154,289.889841 L313.118154,275.735283 L434.138973,247.432024 Z" id="Path" fill="#D5D6DB" fill-rule="nonzero"></path>
            <polygon id="Path" fill="#FF0000" fill-rule="nonzero" points="98.7915408 236.394103 245.750476 209.365559 440.483384 240.661144 319.529117 284.592145"></polygon>
            <path d="M98.8879097,236.555891 C98.8879097,236.555891 85.1555224,262.506167 100.953326,286.474658 L318.319406,333.534743 C318.319406,333.534743 304.826911,312.845844 319.033233,284.171344 L98.8879097,236.555891 Z" id="Path" fill="#FF0000" fill-rule="nonzero"></path>
            <path d="M98.8879097,236.555891 C98.8879097,236.555891 85.1555224,262.506167 100.953326,286.474658 L318.319406,333.534743 C318.319406,333.534743 304.826911,312.845844 319.033233,284.171344 L98.8879097,236.555891 Z" id="Path" fill="#000000" fill-rule="nonzero" opacity="0.1"></path>
            <path d="M105.135952,245.619335 C105.135952,245.619335 96.978852,264.877884 105.135952,277.34139" id="Path" fill="#000000" fill-rule="nonzero" opacity="0.1"></path>
            <path d="M317.642514,333.952273 L439.316043,294.673954 C439.316043,294.673954 446.121313,296.150582 441.721354,301.171119 C437.321395,306.191656 319.989159,338.97281 319.989159,338.97281 L99.6978852,286.404834 L317.642514,333.952273 Z" id="Path" fill="#FF0000" fill-rule="nonzero"></path>
            <path d="M317.642514,333.952273 L439.316043,294.673954 C439.316043,294.673954 446.121313,296.150582 441.721354,301.171119 C437.321395,306.191656 319.989159,338.97281 319.989159,338.97281 L99.6978852,286.404834 L317.642514,333.952273 Z" id="Path" fill="#000000" fill-rule="nonzero" opacity="0.1"></path>
            <path d="M308.1571,289.123867 C308.1571,289.123867 297.960725,303.26284 308.1571,324.471299" id="Path" fill="#000000" fill-rule="nonzero" opacity="0.1"></path>
            <polygon id="Rectangle" fill="#000000" fill-rule="nonzero" opacity="0.1" transform="translate(339.062478, 298.246522) rotate(-18.450000) translate(-339.062478, -298.246522) " points="311.328078 297.957052 366.796962 297.949234 366.796879 298.535992 311.327995 298.54381"></polygon>
            <polygon id="Rectangle" fill="#000000" fill-rule="nonzero" opacity="0.1" transform="translate(344.338170, 299.730367) rotate(-20.820000) translate(-344.338170, -299.730367) " points="310.544423 299.442262 378.132009 299.43172 378.131917 300.018471 310.544331 300.029013"></polygon>
            <polygon id="Rectangle" fill="#000000" fill-rule="nonzero" opacity="0.1" transform="translate(349.346530, 302.465667) rotate(-22.260000) translate(-349.346530, -302.465667) " points="310.176784 302.178741 388.516372 302.165847 388.516276 302.752594 310.176688 302.765487"></polygon>
            <polygon id="Rectangle" fill="#000000" fill-rule="nonzero" opacity="0.1" transform="translate(355.056521, 303.640378) rotate(-24.310000) translate(-355.056521, -303.640378) " points="309.967941 303.35495 400.145204 303.339067 400.145101 303.925806 309.967838 303.941689"></polygon>
            <polygon id="Rectangle" fill="#000000" fill-rule="nonzero" opacity="0.1" transform="translate(359.794130, 304.841840) rotate(-23.610000) translate(-359.794130, -304.841840) " points="310.479617 304.556966 409.108745 304.539973 409.108644 305.126715 310.479516 305.143707"></polygon>
            <polygon id="Rectangle" fill="#000000" fill-rule="nonzero" opacity="0.1" transform="translate(370.146975, 305.209815) rotate(-23.360000) translate(-370.146975, -305.209815) " points="311.133872 304.926529 429.160179 304.906359 429.160078 305.493102 311.133772 305.513271"></polygon>
            <polygon id="Path" fill="#FFFFFF" fill-rule="nonzero" opacity="0.3" points="153.172205 239.044956 256.242401 217.522659 319.033233 229.447175 234.574235 256.495468"></polygon>
            <path d="M440.010665,240.181269 C440.010665,240.181269 445.350149,242.332173 442.216869,245.655233 C439.08359,248.978292 319.033233,283.685801 319.033233,283.685801 L440.010665,240.181269 Z" id="Path" fill="#FF0000" fill-rule="nonzero"></path>
            <path d="M181.737407,61.6613798 C181.737407,61.6613798 159.890463,60.2674818 162.443106,76.4951324 C162.443106,76.4951324 161.931428,79.362058 164.386334,80.6646526 C164.386334,80.6646526 164.426579,79.4472744 166.628521,79.8672699 C167.414281,80.0101783 168.213575,80.0510596 169.008688,79.9890077 C170.080503,79.9113185 171.09945,79.4669824 171.912032,78.7229344 L171.912032,78.7229344 C171.912032,78.7229344 178.057922,76.0325287 180.449587,65.3926438 C180.449587,65.3926438 182.220339,63.0735384 182.174346,62.4770232 L178.471864,64.1448312 C178.471864,64.1448312 179.730938,66.9630616 178.742076,69.3065145 C178.742076,69.3065145 178.621343,64.2483084 177.908443,64.3639593 C177.764713,64.3639593 175.99396,65.3439487 175.99396,65.3439487 C175.99396,65.3439487 178.161407,70.2560695 176.522886,73.8229874 C176.522886,73.8229874 177.1438,67.7726181 175.315555,65.6969883 L172.716919,67.3039275 C172.716919,67.3039275 175.252314,72.3743074 173.533305,76.5133931 C173.533305,76.5133931 173.975993,70.1647661 172.170745,67.6934885 L169.813575,69.6412935 C169.813575,69.6412935 172.199491,74.6386308 170.744945,78.0716371 C170.744945,78.0716371 170.555221,70.6821518 169.307646,70.1221579 C169.307646,70.1221579 167.243685,72.0456153 166.933228,72.8369111 C166.933228,72.8369111 168.566,76.4890455 167.548392,78.3820686 C167.548392,78.3820686 166.933228,73.457774 166.398553,73.4334264 C166.398553,73.4334264 164.34609,76.6959998 164.13337,78.911628 C164.232773,76.8460485 164.841286,74.8440264 165.898373,73.1047343 C164.715461,73.3416829 163.624107,73.940574 162.759312,74.8273244 C162.759312,74.8273244 163.075518,72.5203928 166.410051,72.3195254 C166.410051,72.3195254 168.106064,69.8421609 168.56025,69.6960755 C168.56025,69.6960755 165.242964,69.3978179 163.236495,70.3412859 C163.236495,70.3412859 165.007247,68.168266 169.163916,69.1239078 L171.463594,67.1152339 C171.463594,67.1152339 167.105704,66.5065448 165.254463,67.1821897 C165.254463,67.1821897 167.387414,65.2587322 172.090257,66.6587171 L174.625652,65.0578648 C174.625652,65.0578648 170.905922,64.211787 168.692482,64.5161315 C168.692482,64.5161315 171.026655,63.1831025 175.367298,64.6256956 L177.172546,63.767444 C177.172546,63.767444 174.453176,63.2013632 173.654038,63.1100598 C172.8549,63.0187564 172.814655,62.7874546 172.814655,62.7874546 C174.540643,62.4873399 176.311394,62.6979872 177.931439,63.3961437 C177.931439,63.3961437 181.812147,61.9170292 181.737407,61.6613798 Z" id="Path" fill="#FF0000" fill-rule="nonzero"></path>
            <path d="M496.267073,126.011833 C496.267073,126.011833 474.388588,124.617935 476.944916,140.845586 C476.944916,140.845586 476.432499,143.712511 478.89095,145.015106 C478.89095,145.015106 478.931252,143.797728 481.136373,144.217723 C481.923611,144.357302 482.723679,144.398164 483.519977,144.339461 C484.583581,144.256619 485.593362,143.812517 486.398725,143.073388 L486.398725,143.073388 C486.398725,143.073388 492.559246,140.382982 494.948606,129.743097 C494.948606,129.743097 496.721915,127.423992 496.675855,126.827476 L492.979543,128.495284 C492.979543,128.495284 494.240434,131.313515 493.250145,133.656968 C493.250145,133.656968 493.129238,128.598762 492.421066,128.714412 C492.277128,128.714412 490.498062,129.694402 490.498062,129.694402 C490.498062,129.694402 492.668638,134.606523 491.033509,138.173441 C491.033509,138.173441 491.655319,132.123071 489.818677,130.047442 L487.216289,131.654381 C487.216289,131.654381 489.755345,136.724761 488.033854,140.863846 C488.033854,140.863846 488.477181,134.515219 486.669327,132.043942 L484.314511,133.991747 C484.314511,133.991747 486.698115,138.989084 485.241468,142.42209 C485.241468,142.42209 485.051471,135.032605 483.802094,134.472611 C483.802094,134.472611 481.74091,136.396069 481.424248,137.187364 C481.424248,137.187364 483.059377,140.839499 482.046058,142.732522 C482.046058,142.732522 481.424248,137.808227 480.894559,137.78388 C480.894559,137.78388 478.839132,141.046453 478.626105,143.262081 C478.725779,141.195628 479.337299,139.193138 480.399414,137.455187 C479.213299,137.692714 478.11867,138.29144 477.250064,139.177778 C477.250064,139.177778 477.572483,136.870846 480.906074,136.669979 C480.906074,136.669979 482.604535,134.192614 483.059377,134.040442 C483.059377,134.040442 479.743059,133.748271 477.727936,134.691739 C477.727936,134.691739 479.501244,132.518719 483.663914,133.474361 L485.966913,131.465687 C485.966913,131.465687 481.596973,130.856998 479.748817,131.532643 C479.748817,131.532643 481.87909,129.609185 486.59448,131.00917 L489.127778,129.408318 C489.127778,129.408318 485.402678,128.56224 483.186042,128.866585 C483.186042,128.866585 485.523585,127.533556 489.870495,128.976149 L491.684106,128.117897 C491.684106,128.117897 488.955053,127.551816 488.154761,127.460513 C487.354469,127.36921 487.314167,127.137908 487.314167,127.137908 C489.042552,126.833935 490.816856,127.044701 492.438338,127.746597 C492.438338,127.746597 496.336163,126.267482 496.267073,126.011833 Z" id="Path" fill="#FF0000" fill-rule="nonzero" opacity="0.1"></path>
            <path d="M219.335347,158.82247 C219.335347,158.82247 209.681545,138.779549 197.392767,148.657971 C197.392767,148.657971 194.740303,149.545394 194.868554,152.330269 C194.868554,152.330269 195.888732,151.798982 196.617431,153.947481 C196.889636,154.70697 197.249632,155.431956 197.690076,156.107656 C198.286533,157.023594 199.16434,157.720332 200.19097,158.092681 L200.19097,158.092681 C200.19097,158.092681 205.478409,162.284589 215.557772,159.423816 C215.557772,159.423816 218.373465,159.908396 218.834003,159.569774 L215.616068,157.076815 C215.616068,157.076815 213.867191,159.511391 211.430422,159.727408 C211.430422,159.727408 215.604409,157.257803 215.155531,156.685649 C215.062257,156.568882 213.406653,155.442088 213.406653,155.442088 C213.406653,155.442088 210.369436,159.663187 206.580202,159.879205 C206.580202,159.879205 211.943426,157.602263 212.771228,155.004215 L210.147912,153.451224 C210.147912,153.451224 207.157332,158.075167 202.849264,158.483848 C202.849264,158.483848 208.375716,155.909153 209.547464,153.15347 L206.760919,151.985808 C206.760919,151.985808 203.75868,156.434601 200.167652,156.755708 C200.167652,156.755708 206.253745,153.130117 206.102176,151.758114 C206.102176,151.758114 203.47303,150.835661 202.656887,150.923236 C202.656887,150.923236 200.429984,154.070085 198.331331,154.070085 C198.331331,154.070085 202.138054,151.215151 201.90487,150.753925 C201.90487,150.753925 198.162273,150.462009 196.191871,151.337756 C197.967408,150.453941 199.943148,150.051358 201.922359,150.170094 C201.137153,149.232392 200.095786,148.544549 198.925949,148.190906 C198.925949,148.190906 201.012943,147.396896 202.825946,150.25183 C202.825946,150.25183 205.740741,150.59629 206.084687,150.929074 C206.084687,150.929074 204.691415,147.858122 202.913389,146.521149 C202.913389,146.521149 205.60666,147.064112 206.836704,151.191798 L209.664056,152.312754 C209.664056,152.312754 208.0376,148.155876 206.539395,146.842256 C206.539395,146.842256 209.197689,147.828931 210.357777,152.680567 L212.946116,154.175175 C212.946116,154.175175 211.821005,150.479524 210.468539,148.663809 C210.468539,148.663809 212.73625,150.11171 213.674814,154.630563 L215.289611,155.833255 C215.289611,155.833255 214.415173,153.15347 214.123693,152.406167 C213.832213,151.658863 213.977953,151.507067 213.977953,151.507067 C215.086935,152.893223 215.789316,154.560842 216.006651,156.323673 C216.006651,156.323673 219.125482,158.99762 219.335347,158.82247 Z" id="Path" fill="#FF0000" fill-rule="nonzero" opacity="0.1"></path>
            <path d="M444.108761,99.0015851 C444.108761,99.0015851 434.460636,78.9620104 422.165835,88.838783 C422.165835,88.838783 419.519159,89.7260581 419.641582,92.5104674 C419.641582,92.5104674 420.667606,91.9851072 421.390487,94.1274095 C421.662199,94.8898817 422.024283,95.6169606 422.468978,96.2930612 C423.063301,97.2071269 423.939377,97.9019396 424.964083,98.2719181 L424.964083,98.2719181 C424.964083,98.2719181 430.257435,102.463125 440.331127,99.6086681 C440.331127,99.6086681 443.146864,100.08733 443.613238,99.7487641 L440.412742,97.2503843 C440.412742,97.2503843 438.663837,99.6903908 436.23286,99.9063722 C436.23286,99.9063722 440.401083,97.4313417 439.952197,96.8592828 C439.858922,96.7425361 438.203293,95.6159302 438.203293,95.6159302 C438.203293,95.6159302 435.171857,99.8363242 431.376734,100.052306 C431.376734,100.052306 436.745872,97.7757445 437.573687,95.1839673 L434.909522,93.6429106 C434.909522,93.6429106 431.924724,98.2602434 427.610759,98.6746943 C427.610759,98.6746943 433.137298,96.0945918 434.314894,93.3393691 L431.522476,92.1719019 C431.522476,92.1719019 428.520189,96.6257893 424.934934,96.9410055 C424.934934,96.9410055 431.015293,93.3160198 430.863722,91.9500832 C430.863722,91.9500832 428.240364,91.0219467 427.424209,91.1153441 C427.424209,91.1153441 425.19727,94.2558309 423.092754,94.2558309 C423.092754,94.2558309 426.905367,91.4013736 426.67218,90.940224 C426.67218,90.940224 422.929523,90.6483572 420.953261,91.5239576 C422.728737,90.6400307 424.704578,90.2375007 426.683839,90.3564904 C425.901562,89.4183489 424.861827,88.7303708 423.693212,88.3776335 C423.693212,88.3776335 425.780238,87.5837558 427.59327,90.4382131 C427.59327,90.4382131 430.508111,90.7884533 430.852062,91.1211814 C430.852062,91.1211814 429.458768,88.0449053 427.674885,86.7081554 C427.674885,86.7081554 430.368199,87.256865 431.598262,91.4072109 L434.431488,92.5279794 C434.431488,92.5279794 432.805006,88.3659588 431.306778,87.0525582 C431.306778,87.0525582 433.965113,88.039068 435.11939,92.8898943 L437.713599,94.3842523 C437.713599,94.3842523 436.582641,90.6950559 435.230154,88.8738071 C435.230154,88.8738071 437.503731,90.3214664 438.43648,94.8395645 L440.051302,96.0420557 C440.051302,96.0420557 439.182679,93.3627185 438.885365,92.6155395 C438.588052,91.8683605 438.739623,91.7224271 438.739623,91.7224271 C439.845467,93.1096365 440.545686,94.7766076 440.762523,96.5382293 C440.762523,96.5382293 443.928041,99.1883799 444.108761,99.0015851 Z" id="Path" fill="#FF0000" fill-rule="nonzero" opacity="0.1"></path>
            <path d="M474.924471,197.796695 C474.924471,197.796695 465.283236,177.753883 452.979739,187.629375 C452.979739,187.629375 450.334953,188.516535 450.457289,191.300583 C450.457289,191.300583 451.48258,190.775291 452.204945,192.917315 C452.474573,193.679436 452.83444,194.406415 453.276841,195.082686 C453.870739,195.996633 454.74619,196.691356 455.770163,197.061286 L455.770163,197.061286 C455.770163,197.061286 461.059735,201.257786 471.132058,198.397863 C471.132058,198.397863 473.939958,198.882299 474.406,198.537941 L471.190313,196.045721 C471.190313,196.045721 469.442657,198.485411 467.00759,198.701365 C467.00759,198.701365 471.172837,196.226655 470.724272,195.654671 C470.631063,195.537939 468.976616,194.411479 468.976616,194.411479 C468.976616,194.411479 465.947346,198.631326 462.154932,198.853116 C462.154932,198.853116 467.520236,196.571013 468.34746,193.979573 L465.72015,192.427043 C465.72015,192.427043 462.737484,197.049613 458.4266,197.458173 C458.4266,197.458173 463.949192,194.878406 465.125947,192.12354 L462.335523,190.956225 C462.335523,190.956225 459.335381,195.403698 455.752686,195.72471 C455.752686,195.72471 461.834529,192.100194 461.683065,190.728598 C461.683065,190.728598 459.055756,189.800582 458.240183,189.893967 C458.240183,189.893967 456.014835,193.034047 453.911822,193.034047 C453.911822,193.034047 457.721712,190.17996 457.488691,189.71887 C457.488691,189.71887 453.748708,189.427041 451.773856,190.302528 C453.550337,189.419267 455.52649,189.016847 457.506168,189.135212 C456.723346,188.195728 455.682038,187.507648 454.511851,187.156612 C454.511851,187.156612 456.597387,186.357001 458.409123,189.216924 C458.409123,189.216924 461.321883,189.561282 461.665589,189.893967 C461.665589,189.893967 460.27329,186.823927 458.496506,185.481514 C458.496506,185.481514 461.187896,186.030152 462.417081,190.17996 L465.242458,191.300583 C465.242458,191.300583 463.617138,187.139102 462.119979,185.831709 C462.119979,185.831709 464.776416,186.812254 465.929869,191.668287 L468.522225,193.156615 C468.522225,193.156615 467.392074,189.467897 466.040554,187.646885 C466.040554,187.646885 468.312507,189.094356 469.250415,193.617705 L470.864084,194.78502 C470.864084,194.78502 469.990256,192.106031 469.69898,191.358949 C469.407704,190.611867 469.553342,190.465952 469.553342,190.465952 C470.661055,191.851398 471.361104,193.51894 471.574798,195.28113 C471.574798,195.28113 474.74388,197.971792 474.924471,197.796695 Z" id="Path" fill="#FF0000" fill-rule="nonzero" opacity="0.1"></path>
            <ellipse id="Oval" fill="#FF0000" fill-rule="nonzero" opacity="0.1" cx="118.731118" cy="458.610272" rx="13.5951662" ry="1.81268882"></ellipse>
            <ellipse id="Oval" fill="#FF0000" fill-rule="nonzero" opacity="0.1" cx="29.9093656" cy="433.232628" rx="13.5951662" ry="1.81268882"></ellipse>
            <ellipse id="Oval" fill="#FF0000" fill-rule="nonzero" opacity="0.1" cx="185.800604" cy="475.830816" rx="13.5951662" ry="1.81268882"></ellipse>
            <ellipse id="Oval" fill="#FF0000" fill-rule="nonzero" opacity="0.1" cx="531.117825" cy="438.670695" rx="13.5951662" ry="1.81268882"></ellipse>
            <ellipse id="Oval" fill="#FF0000" fill-rule="nonzero" opacity="0.1" cx="418.731118" cy="431.41994" rx="13.5951662" ry="1.81268882"></ellipse>
            <ellipse id="Oval" fill="#FF0000" fill-rule="nonzero" opacity="0.1" cx="345.770393" cy="465.861027" rx="15.8610272" ry="2.71903323"></ellipse>
            <path d="M353.136799,438.670695 C353.136799,438.670695 330.70997,450.297508 342.296572,463.992895 C342.296572,463.992895 343.386519,466.964984 346.537885,466.756937 C346.537885,466.756937 345.909981,465.603767 348.314971,464.682419 C349.170718,464.350481 349.98403,463.91747 350.737732,463.392533 C351.756195,462.686007 352.517338,461.665542 352.905778,460.485829 L352.905778,460.485829 C352.905778,460.485829 357.49066,454.327661 353.936488,442.932671 C353.936488,442.932671 354.39853,439.710926 353.995724,439.187838 L351.270858,442.938615 C351.270858,442.938615 354.084578,444.834808 354.410377,447.622627 C354.410377,447.622627 351.448567,442.944559 350.856205,443.461703 C350.725885,443.568698 349.505619,445.512444 349.505619,445.512444 C349.505619,445.512444 354.386683,448.83524 354.748024,453.150713 C354.748024,453.150713 351.999464,447.105484 349.03173,446.243578 L347.33165,449.286997 C347.33165,449.286997 352.662909,452.544407 353.255271,457.44241 C353.255271,457.44241 350.157218,451.230744 346.994004,449.976522 L345.74412,453.192323 C345.74412,453.192323 350.885823,456.473509 351.359713,460.551215 C351.359713,460.551215 347.059164,453.733243 345.513099,453.947233 C345.513099,453.947233 344.541625,456.966876 344.671945,457.900112 C344.671945,457.900112 348.303124,460.337225 348.368284,462.732729 C348.368284,462.732729 345.015515,458.482641 344.500159,458.762018 C344.500159,458.762018 344.286909,463.035882 345.317619,465.259005 C345.317619,465.259005 343.540533,462.084813 343.83079,458.762018 C342.791921,459.683894 342.044472,460.890576 341.680516,462.233418 C341.680516,462.233418 340.714966,459.885467 343.89595,457.721786 C343.89595,457.721786 344.198055,454.398991 344.565319,453.988842 C344.565319,453.988842 341.123696,455.676989 339.660561,457.745563 C339.660561,457.745563 340.199611,454.660535 344.867424,453.126937 L346.052148,449.869527 C346.052148,449.869527 341.384335,451.854882 339.944895,453.602471 C339.944895,453.602471 340.981529,450.541219 346.419413,449.073007 L348.030638,446.100918 C348.030638,446.100918 343.884103,447.503744 341.858225,449.073007 C341.858225,449.073007 343.427984,446.439736 348.528222,445.227124 L349.837342,443.354707 C349.837342,443.354707 346.828143,444.430604 345.986988,444.816975 C345.145834,445.203347 344.979973,445.013133 344.979973,445.013133 C346.517522,443.708073 348.385486,442.856239 350.376392,442.552243 C350.376392,442.552243 353.344126,438.872797 353.136799,438.670695 Z" id="Path" fill="#FF0000" fill-rule="nonzero"></path>
            <path d="M419.052718,221.432365 C415.219196,211.002903 394.117243,210.022757 384.96134,212.681477 C378.454905,214.57721 364.738635,216.713577 357.411568,217.787629 L356.936774,217.335706 C357.886362,217.053987 357.909808,216.361428 357.792575,215.334329 C357.724336,213.98067 357.743916,212.624003 357.851192,211.272884 C362.341219,212.669739 366.338866,209.365413 366.338866,209.365413 L366.338866,209.365413 C371.614355,207.017757 370.195835,196.969789 371.204039,194.223032 C371.960192,192.168833 372.774962,180.066666 373.138385,174.03319 L373.214586,174.03319 L373.255618,172.008336 C373.308373,171.133834 373.331819,170.623219 373.331819,170.623219 C373.331819,170.623219 373.847645,155.868201 374.855849,152.880808 C375.793714,150.134051 376.555729,136.294618 376.672962,134.09956 C376.672962,133.911748 376.672962,133.811972 376.672962,133.811972 L376.59676,132.5325 C376.649515,131.599306 376.672962,130.560469 376.6671,129.468808 C376.6671,124.450694 376.145413,118.12963 376.080935,117.108399 C376.080935,116.961671 376.080935,116.785597 376.080935,116.574308 C376.121966,114.432071 375.85233,103.703283 366.737459,99.6477074 C363.378731,98.1452075 359.340052,96.3551198 355.430329,94.6119852 C354.422124,85.896312 352.118495,77.2275921 352.317791,68.4473584 C352.317791,67.1268019 352.435024,65.8062453 352.56398,64.4915579 C352.56398,64.8730521 352.522949,65.2604153 352.517087,65.665386 C352.517087,66.5164113 352.517087,67.3733058 352.517087,68.2243311 C352.862925,57.2431699 357.007114,46.2033173 356.620245,35.4569217 C356.585075,36.5074977 356.508873,37.563943 356.409225,38.6203882 C356.611602,34.985526 356.231651,31.3416579 355.283788,27.8270395 C354.932088,26.5886509 354.457294,25.3091784 353.443228,24.4816296 C352.484703,23.815146 351.385417,23.3792888 350.231042,23.2080262 C347.457321,22.497138 344.639468,21.9716695 341.796122,21.6350966 C341.364055,20.3108646 340.72287,19.064504 339.896947,17.9434075 C333.95323,9.7735644 325.149026,2.09672909 314.738729,0.335987051 C309.515996,-0.544383971 303.507801,0.189258547 299.955639,3.92790082 C299.584682,4.25633137 299.236111,4.60926958 298.912264,4.98434604 C297.001365,7.26744156 296.180734,10.2665722 294.222941,12.5437985 C294.093985,12.6963962 293.947444,12.8372556 293.806764,12.9839841 C289.973242,16.417431 284.000217,17.1334661 279.738795,20.2147647 C278.987914,20.767907 278.284065,21.3823531 277.634461,22.0518056 C275.917363,23.7555703 274.377609,25.6296256 273.038925,27.6450961 C271.122164,30.3449006 269.152649,33.1562187 268.543037,36.3783767 C267.317951,42.8344308 271.70833,48.955944 272.523099,55.4530821 C274.340212,69.9909423 258.273419,82.8913123 261.315618,97.2354908 C262.127387,100.759425 263.919977,103.980846 266.485596,106.52634 C260.219488,112.207667 254.885383,117.71879 254.885383,117.71879 L254.885383,118.047462 L253.894764,118.047462 L253.994412,119.22129 L253.894764,119.22129 L254.439898,125.589307 L253.894764,134.862548 C253.894764,134.862548 253.894764,134.962324 253.894764,135.150136 L253.894764,135.197089 L253.894764,135.449462 C253.894764,135.449462 253.894764,135.549238 253.894764,135.73705 L253.929934,135.73705 C254.111645,139.135282 254.832629,151.354832 255.68843,153.931385 C256.696634,156.918777 257.206598,171.673795 257.206598,171.673795 C257.206598,171.673795 258.320313,192.52685 259.34024,195.285346 C260.360168,198.043842 258.91234,208.062464 264.205413,210.427728 L264.205413,210.427728 C265.753877,211.617021 267.587267,212.37803 269.521933,212.634524 C269.252297,214.829583 269.422285,216.42012 270.295671,216.918997 C270.669504,217.139045 271.09311,217.26023 271.526618,217.271145 C271.167501,217.804438 270.848152,218.363522 270.571169,218.94385 C268.470249,218.724225 266.405906,218.237064 264.428156,217.494172 C258.742352,215.146516 239.873688,209.86429 234.393042,213.579456 C228.912396,217.294622 215.723675,220.663508 221.813933,235.618077 C227.904192,250.572646 230.741232,250.948271 230.741232,250.948271 C232.615883,252.310893 234.2604,253.965437 235.612266,255.849003 C237.441102,258.60163 254.480929,264.899217 258.742352,264.899217 C260.553632,264.871278 262.364806,264.961462 264.164381,265.169198 C264.164381,265.169198 259.539537,269.230643 260.15501,271.590037 C260.770484,273.949431 258.748213,292.836324 258.748213,292.836324 C258.748213,292.836324 263.437536,297.566851 265.442222,291.36317 L265.512562,291.457076 C265.887707,291.967692 267.91584,294.274264 271.731776,291.36317 C273.293497,290.176827 274.952362,289.124478 276.690735,288.217311 L295.166668,285.599675 C297.092918,285.479124 299.024355,285.465408 300.95212,285.558591 C303.882947,285.799225 306.761018,284.06196 308.572269,282.717927 C312.399929,284.173473 316.702383,285.76401 318.7481,286.345055 C322.898151,287.518883 341.971972,292.642643 346.432691,291.040367 C347.359924,290.671213 348.184393,290.083281 348.835969,289.326579 L353.091529,289.461569 L351.098567,289.86067 C351.098567,289.86067 354.978982,289.925231 360.25447,289.995661 L360.031727,290.124782 L366.649534,290.06609 C376.332986,290.154127 387.212215,290.183473 388.642459,289.86067 C390.88161,289.361793 402.516993,289.713942 405.94606,289.86067 L406.90151,289.86067 C406.90151,289.86067 419.685776,287.307594 414.410288,274.319187 C410.354024,264.341649 397.886286,261.442294 392.352885,260.644091 C393.912085,260.333026 395.254404,260.092391 396.145375,259.951532 C400.008205,259.364618 407.511122,255.843134 408.120734,254.63996 C408.730346,253.436787 415.0199,249.944648 416.643578,247.95501 C418.267256,245.965371 422.903824,231.861827 419.052718,221.432365 Z M313.161944,250.619599 L312.534747,250.825019 L312.112708,250.965879 L311.3038,251.764082 C310.659018,251.329765 309.967343,250.871972 309.24636,250.402441 C310.518338,250.47874 311.825487,250.555039 313.161944,250.619599 Z" id="Shape" fill="url(#linearGradient-1)" fill-rule="nonzero"></path>
            <path d="M351.661631,189.051747 C351.661631,189.051747 360.455383,212.446969 365.455751,210.107447 C370.45612,207.767925 369.099698,197.824956 370.053791,195.099412 C371.007884,192.373869 372.065434,171.70419 372.065434,171.70419 C372.065434,171.70419 372.548228,157.082176 373.502321,154.122681 C374.387444,151.402986 375.105888,137.687537 375.226586,135.529328 C375.226586,135.342166 375.226586,135.242737 375.226586,135.242737 L374.27824,118.281201 L368.910029,116.918429 L356.460836,121.597473 L354.736571,131.616477 L354.064107,135.529328 L353.77673,137.196238 L351.661631,189.051747 Z" id="Path" fill="#BE6F72" fill-rule="nonzero"></path>
            <path d="M353.47432,184.89426 C353.47432,184.89426 362.093274,191.846003 364.690766,192.456826 C367.288259,193.067648 368.882175,198.489426 368.882175,198.489426" id="Path" fill="#000000" fill-rule="nonzero" opacity="0.1"></path>
            <path d="M280.060423,189.958092 C280.060423,189.958092 271.266672,213.353314 266.266303,211.013792 C261.265935,208.674269 262.622356,198.7313 261.668263,196.005757 C260.71417,193.280213 259.656621,172.610535 259.656621,172.610535 C259.656621,172.610535 259.173827,157.988521 258.219733,155.029025 C257.334611,152.309331 256.616167,138.593882 256.495468,136.435673 C256.495468,136.248511 256.495468,136.149081 256.495468,136.149081 L257.449562,119.187545 L262.817773,117.824773 L275.266966,122.503818 L276.991231,132.522822 L277.663695,136.435673 L277.951072,138.102582 L280.060423,189.958092 Z" id="Path" fill="#BE6F72" fill-rule="nonzero"></path>
            <rect id="Rectangle" fill="#3E373A" fill-rule="nonzero" x="319.033233" y="64.3504532" width="19.939577" height="30.81571"></rect>
            <rect id="Rectangle" fill="#000000" fill-rule="nonzero" opacity="0.1" x="319.033233" y="64.3504532" width="19.939577" height="30.81571"></rect>
            <path d="M277.664846,213.043367 C277.664846,213.043367 270.841116,220.563104 273.372972,221.92873 C275.904827,223.294357 292.282948,248.889596 292.282948,248.889596 C292.282948,248.889596 346.077562,255.530175 356.222525,245.566377 C366.367488,235.602578 366.163142,217.802546 366.163142,217.802546 C366.163142,217.802546 358.011781,219.560863 357.123,218.60551 C356.23422,217.650158 351.351774,213.043367 351.351774,213.043367 C351.351774,213.043367 282.342639,208.846849 277.664846,213.043367 Z" id="Path" fill="#4B4B5B" fill-rule="nonzero"></path>
            <path d="M277.664846,213.043367 C277.664846,213.043367 270.841116,220.563104 273.372972,221.92873 C275.904827,223.294357 292.282948,248.889596 292.282948,248.889596 C292.282948,248.889596 346.077562,255.530175 356.222525,245.566377 C366.367488,235.602578 366.163142,217.802546 366.163142,217.802546 C366.163142,217.802546 358.011781,219.560863 357.123,218.60551 C356.23422,217.650158 351.351774,213.043367 351.351774,213.043367 C351.351774,213.043367 282.342639,208.846849 277.664846,213.043367 Z" id="Path" fill="#000000" fill-rule="nonzero" opacity="0.02"></path>
            <path d="M374.303864,118.10728 L356.676896,132.124966 L351.347676,132.510452 L349.391083,132.650629 L316.528539,135.045317 L282.449734,132.568859 L277.379043,132.200895 L270.915821,131.733639 L257.401813,118.884093 C257.401813,118.884093 266.967381,108.697908 275.346066,101.823401 C278.648185,99.1074748 281.768158,96.9113707 284.042037,96.0469467 L284.42983,95.9126106 C285.86007,95.358169 287.136989,94.4732469 288.154996,93.3310201 C294.770985,86.5499645 300.887543,69.8163519 300.887543,69.8163519 C300.887543,69.8163519 330.071926,54.8291093 326.546532,74.4889139 C323.021139,94.1487184 339.666872,89.289254 339.666872,89.289254 L345.154735,91.7773932 L347.322852,92.7644719 L352.851844,95.2818147 L365.325862,100.970659 C375.114704,105.450478 374.303864,118.10728 374.303864,118.10728 Z" id="Path" fill="#BE6F72" fill-rule="nonzero"></path>
            <circle id="Oval" fill="#000000" fill-rule="nonzero" opacity="0.1" cx="315.407855" cy="59.8187311" r="26.2839879"></circle>
            <path d="M374.663098,135.951662 L257.401813,135.951662 C257.401813,135.764893 257.401813,135.665673 257.401813,135.665673 L258.371735,118.739808 C258.371735,118.739808 267.883986,108.560943 276.215971,101.691376 L349.836589,98.7731234 L353.260532,95.1661631 L365.665022,100.850919 C375.405147,105.321682 374.622198,117.969389 374.622198,117.969389 C374.622198,117.969389 375.95438,132.624854 374.663098,135.951662 Z" id="Path" fill="#000000" fill-rule="nonzero" opacity="0.1"></path>
            <path d="M374.663098,135.951662 L257.401813,135.951662 C257.401813,135.764893 257.401813,135.665673 257.401813,135.665673 L258.371735,118.739808 C258.371735,118.739808 267.883986,108.560943 276.215971,101.691376 L349.836589,98.7731234 L353.260532,95.1661631 L365.665022,100.850919 C375.405147,105.321682 374.622198,117.969389 374.622198,117.969389 C374.622198,117.969389 375.95438,132.624854 374.663098,135.951662 Z" id="Path" fill="#E7C7CA" fill-rule="nonzero"></path>
            <path d="M296.473325,88.541802 C296.473325,88.541802 315.088032,112.356938 339.882162,88.0518029 C364.676293,63.7466682 342.62792,142.264592 342.62792,142.264592 L289.123867,148.640483 L296.473325,88.541802 Z" id="Path" fill="#000000" fill-rule="nonzero" opacity="0.1"></path>
            <path d="M296.473325,89.4481464 C296.473325,89.4481464 315.088032,113.263282 339.882162,88.9581473 C364.676293,64.6530126 342.62792,143.170936 342.62792,143.170936 L289.123867,149.546828 L296.473325,89.4481464 Z" id="Path" fill="#E7C7CA" fill-rule="nonzero"></path>
            <path d="M347.591027,94.3186675 L349.554852,124.204558 L351.659369,134.148972 L353.265602,141.753525 C353.265602,141.753525 357.369117,200.25008 356.196684,203.174908 C355.024251,206.099736 356.7829,208.439598 357.029111,209.995607 C357.275322,211.551615 356.7829,215.459185 356.976352,217.214082 C357.169803,218.968978 356.976352,219.746982 352.485934,219.121069 C347.995516,218.495156 341.734724,217.40712 341.734724,217.40712 C341.734724,217.40712 325.90688,218.577051 320.437481,216.629116 C314.968081,214.681181 304.609636,214.675331 304.609636,214.675331 C304.609636,214.675331 288.975244,215.067258 283.898609,214.482292 C278.821975,213.897327 276.078482,220.723875 272.760497,218.77009 C269.442512,216.816305 276.664698,197.910218 279.009564,192.44664 C281.35443,186.983061 275.88503,173.142776 275.88503,173.142776 L282.919628,134.201619 L284.484826,125.374489 L284.484826,97.6237229 L284.871729,97.4891808 C286.298685,96.9338894 287.572671,96.0476107 288.588341,94.903633 L290.34699,122.829889 L345.451336,124.783674 L345.451336,93.3534743" id="Path" fill="#000000" fill-rule="nonzero" opacity="0.1"></path>
            <path d="M347.591027,92.5059787 L349.554852,122.391869 L351.659369,132.336283 L353.265602,139.940836 C353.265602,139.940836 357.369117,198.437392 356.196684,201.362219 C355.024251,204.287047 356.7829,206.626909 357.029111,208.182918 C357.275322,209.738926 356.7829,213.646496 356.976352,215.401393 C357.169803,217.156289 356.976352,217.934294 352.485934,217.30838 C347.995516,216.682467 341.734724,215.594431 341.734724,215.594431 C341.734724,215.594431 325.90688,216.764362 320.437481,214.816427 C314.968081,212.868492 304.609636,212.862642 304.609636,212.862642 C304.609636,212.862642 288.975244,213.254569 283.898609,212.669604 C278.821975,212.084638 276.078482,218.911186 272.760497,216.957401 C269.442512,215.003616 276.664698,196.097529 279.009564,190.633951 C281.35443,185.170373 275.88503,171.330088 275.88503,171.330088 L282.919628,132.38893 L284.484826,123.5618 L284.484826,95.8110341 L284.871729,95.676492 C286.298685,95.1212006 287.572671,94.2349219 288.588341,93.0909442 L290.34699,121.0172 L345.451336,122.970985 L345.451336,91.5407855" id="Path" fill="#E7C7CA" fill-rule="nonzero"></path>
            <path d="M353.25333,30.3418601 C352.918486,29.1166688 352.454405,27.8445803 351.490995,27.023878 C350.571033,26.3646819 349.50846,25.9309024 348.389286,25.7576516 C345.709821,25.0545426 342.985659,24.5335693 340.235549,24.1983173 C339.842683,22.8966292 339.248039,21.6643367 338.473215,20.5461921 C332.716254,12.4329637 324.198302,4.78284595 314.176491,3.05350898 C308.930607,2.1448743 302.850551,2.95971443 299.490366,7.08667452 C297.645789,9.35533013 296.852738,12.3626178 294.990538,14.5902383 C291.401249,18.9165118 284.921731,19.4499683 280.398405,22.7972612 C277.984006,24.555909 276.23342,27.1059482 274.523955,29.5797794 C272.673503,32.2587862 270.770182,35.049174 270.182737,38.2499129 C269.007847,44.6455286 273.243325,50.7421742 274.024627,57.1964115 C275.786962,71.6349096 260.278414,84.4437275 263.209765,98.6887744 C264.91923,106.995454 272.608884,112.845889 280.562889,115.812141 C283.365002,116.861468 286.566577,117.904932 287.876579,120.589801 C288.464024,121.762233 288.56389,123.116392 289.116088,124.300548 C290.972414,128.251643 297.075967,128.404059 300.35391,125.525739 C303.631853,122.647419 304.665756,117.992865 305.05347,113.649005 C306.627823,94.6790575 299.014536,75.9377345 299.901578,56.92089 C300.165928,51.1701118 301.787276,44.6455286 306.950917,42.0427299 C313.900391,38.5254344 322.259733,44.3875936 329.908267,43.2679212 C333.527652,52.0561075 334.296008,61.7552663 332.105311,71.0017964 C330.8893,76.0608398 328.786247,80.9674671 328.633511,86.1847888 C328.404408,94.1280145 332.69863,101.385368 336.411283,108.408234 C337.207915,109.721497 337.740656,111.176997 337.979761,112.693473 C338.0382,114.23212 337.751184,115.76434 337.139714,117.178025 C335.042536,122.81156 331.423875,128.040606 331.012663,134.037594 C330.892162,134.737639 331.050241,135.456973 331.453247,136.042453 C331.867139,136.433209 332.401258,136.672854 332.968855,136.722463 C339.313261,137.806963 344.799997,132.196876 347.895832,126.563341 C351.34743,120.341151 353.358721,113.42653 353.78203,106.327168 C354.422345,94.3918117 350.133997,82.6499068 350.398347,70.7028263 C350.703819,57.1202034 356.854368,43.443786 353.25333,30.3418601 Z" id="Path" fill="#000000" fill-rule="nonzero" opacity="0.1"></path>
            <path d="M354.159674,29.4355157 C353.824831,28.2103244 353.360749,26.9382359 352.397339,26.1175336 C351.477378,25.4583375 350.414805,25.024558 349.29563,24.8513072 C346.616165,24.1481982 343.892004,23.6272249 341.141894,23.2919729 C340.749027,21.9902848 340.154384,20.7579922 339.379559,19.6398477 C333.622598,11.5266193 325.104646,3.87650154 315.082835,2.14716457 C309.836951,1.23852989 303.756896,2.05337002 300.396711,6.18033011 C298.552133,8.44898572 297.759083,11.4562734 295.896882,13.6838939 C292.307593,18.0101674 285.828075,18.5436239 281.304749,21.8909168 C278.89035,23.6495646 277.139764,26.1996038 275.430299,28.673435 C273.579848,31.3524418 271.676526,34.1428296 271.089081,37.3435685 C269.914191,43.7391842 274.149669,49.8358298 274.930971,56.2900671 C276.693306,70.7285652 261.184759,83.5373831 264.116109,97.78243 C265.825574,106.08911 273.515229,111.939544 281.469234,114.905797 C284.271346,115.955124 287.472921,116.998588 288.782924,119.683457 C289.370369,120.855889 289.470234,122.210047 290.022432,123.394204 C291.878759,127.345299 297.982312,127.497715 301.260255,124.619395 C304.538198,121.741075 305.572101,117.08652 305.959815,112.74266 C307.534167,93.7727131 299.92088,75.0313901 300.807922,56.0145456 C301.072272,50.2637674 302.69362,43.7391842 307.857262,41.1363855 C314.806736,37.61909 323.166078,43.4812492 330.814611,42.3615768 C334.433997,51.1497631 335.202352,60.8489219 333.011655,70.095452 C331.795644,75.1544954 329.692591,80.0611227 329.539856,85.2784444 C329.310752,93.2216701 333.604975,100.479023 337.317627,107.50189 C338.11426,108.815153 338.647,110.270653 338.886105,111.787128 C338.944544,113.325775 338.657529,114.857996 338.046059,116.27168 C335.94888,121.905215 332.330219,127.134261 331.919008,133.13125 C331.798506,133.831294 331.956586,134.550628 332.359592,135.136108 C332.773483,135.526865 333.307602,135.766509 333.8752,135.816119 C340.219605,136.900618 345.706341,131.290532 348.802176,125.656997 C352.253774,119.434807 354.265065,112.520185 354.688375,105.420823 C355.32869,93.4854673 351.040342,81.7435624 351.304692,69.7964819 C351.610163,56.213859 357.760712,42.5374416 354.159674,29.4355157 Z" id="Path" fill="#3E373A" fill-rule="nonzero"></path>
            <polygon id="Path" fill="#C3C7D9" fill-rule="nonzero" points="340.785498 289.286837 364.350453 290.030211 360.970453 272.809668 342.918047 274.501285"></polygon>
            <path d="M413.149338,248.440442 C411.589152,250.39355 405.552926,253.912664 404.968587,255.085702 C404.384247,256.25874 397.179343,259.777853 393.474632,260.364372 C389.76992,260.950891 378.088977,263.496383 375.944452,264.862972 C374.407639,265.848324 362.072236,268.968604 353.967449,270.698835 C351.7722,271.220124 349.550394,271.621502 347.311824,271.901199 C343.805788,272.09475 305.438066,258.997783 305.438066,258.997783 L312.835803,251.373037 L313.24484,251.232272 C315.336775,250.522585 325.001748,247.243944 330.365983,245.683804 C336.408052,243.924247 343.420124,236.692469 343.420124,236.692469 C343.420124,236.692469 353.739557,233.173355 355.106911,232.780388 C356.474265,232.38742 351.600875,219.096901 351.600875,219.096901 C351.600875,219.096901 373.998602,215.976621 382.763692,213.33142 C391.528782,210.68622 411.787827,211.665707 415.486695,222.029496 C419.185563,232.393285 414.732897,246.487334 413.149338,248.440442 Z" id="Path" fill="#4B4B5B" fill-rule="nonzero"></path>
            <path d="M310.876133,281.128951 C310.876133,281.128951 306.365822,285.885952 301.849623,285.4935 C297.333425,285.101047 281.541449,286.68275 281.541449,286.68275 C278.679616,287.835561 275.999742,289.404068 273.58658,291.338665 C269.89472,294.276113 267.933972,291.93329 267.568907,291.433805 L267.504138,291.338665 C265.537501,297.588175 261.02719,292.825228 261.02719,292.825228 C261.02719,292.825228 262.987939,273.797224 262.387349,271.418723 C261.78676,269.040223 266.26763,264.955148 266.26763,264.955148 L271.56695,263.593457 L284.991896,260.120846 L304.22843,266.857949 L310.876133,281.128951 Z" id="Path" fill="#E7C7CA" fill-rule="nonzero"></path>
            <path d="M271.903323,264.652568 L267.792803,291.540786 L267.725816,291.448899 C265.69187,297.484678 261.02719,292.884622 261.02719,292.884622 C261.02719,292.884622 263.055047,274.50737 262.433902,272.210213 C261.812756,269.913057 266.446988,265.96769 266.446988,265.96769 L271.903323,264.652568 Z" id="Path" fill="#000000" fill-rule="nonzero" opacity="0.1"></path>
            <path d="M299.093656,185.800604 C299.093656,185.800604 309.76435,189.879154 319.033233,185.800604" id="Path" fill="#000000" fill-rule="nonzero" opacity="0.1"></path>
            <path d="M335.347432,192.145015 C335.347432,192.145015 339.435743,194.18429 342.598187,192.145015" id="Path" fill="#000000" fill-rule="nonzero" opacity="0.1"></path>
            <path d="M334.441088,198.134681 C334.441088,198.134681 342.058829,199.56659 343.504532,196.676737" id="Path" fill="#000000" fill-rule="nonzero" opacity="0.1"></path>
            <path d="M332.628399,208.459215 C332.628399,208.459215 346.423895,206.905481 349.848943,204.833837" id="Path" fill="#000000" fill-rule="nonzero" opacity="0.1"></path>
            <path d="M290.936556,204.833837 C290.936556,204.833837 298.212898,208.624268 303.625378,208.453621" id="Path" fill="#000000" fill-rule="nonzero" opacity="0.1"></path>
            <path d="M353.423887,269.835113 C351.212228,270.337956 348.973812,270.72513 346.718508,270.99493 C343.186262,271.181632 304.531722,258.548119 304.531722,258.548119 L311.98476,251.193185 L312.396855,251.057402 C313.574271,251.855129 314.539751,252.539704 315.228539,253.060207 C318.472318,255.515623 321.604242,252.307741 322.781657,252.307741 C323.959073,252.307741 334.161375,260.41514 334.161375,260.41514 C334.161375,260.41514 343.580697,262.491495 345.152546,264.375489 C346.724395,266.259484 352.217037,265.88608 353.194291,267.20431 C353.488645,267.61166 353.523968,268.613063 353.423887,269.835113 Z" id="Path" fill="#000000" fill-rule="nonzero" opacity="0.1"></path>
            <path d="M281.294458,219.873898 C281.294458,219.873898 271.821808,220.414793 266.35952,218.129073 C260.897232,215.843352 242.748149,210.568164 237.479061,214.27301 C232.209972,217.977855 219.523178,221.252309 225.377721,235.990264 C231.232264,250.728219 233.966335,251.112081 233.966335,251.112081 C235.777755,252.461578 237.359124,254.09147 238.649969,255.93943 C240.406332,258.655541 256.799052,264.855486 260.897232,264.855486 C264.995411,264.855486 272.214063,264.855486 282.359985,271.834786 C292.505908,278.814086 301.679976,279.593441 301.679976,279.593441 C301.679976,279.593441 314.55997,284.827916 318.570332,285.991132 C322.580693,287.154349 340.905412,292.191077 345.202646,290.643999 C349.499881,289.096921 352.228098,279.395694 352.228098,279.395694 C352.228098,279.395694 354.17766,270.671569 353.199952,269.316422 C352.222243,267.961274 346.759955,268.345136 345.202646,266.40838 C343.645338,264.471624 334.272215,262.337122 334.272215,262.337122 C334.272215,262.337122 324.149711,253.996858 322.978802,253.996858 C321.807894,253.996858 318.693277,257.288761 315.467424,254.770397 C309.041528,250.042169 302.290353,245.766592 295.263397,241.975014 C287.851546,238.095687 281.294458,219.873898 281.294458,219.873898 Z" id="Path" fill="#4B4B5B" fill-rule="nonzero"></path>
            <path d="M262.839879,224.999772 C266.243914,224.301502 269.77746,225.238812 272.393855,227.534065 C277.057175,231.43793 292.749245,239.274924 292.749245,239.274924" id="Path" fill="#000000" fill-rule="nonzero" opacity="0.1"></path>
            <path d="M379.758308,224.773414 C379.758308,224.773414 359.137206,227.849147 355.287009,232.024169" id="Path" fill="#000000" fill-rule="nonzero" opacity="0.1"></path>
            <path d="M404.00721,289.774678 L403.095182,289.774678 C399.818856,289.659688 388.717686,289.314718 386.579941,289.774678 C384.064606,290.349628 350.755287,289.774678 350.755287,289.774678 L357.267276,288.435045 C357.267276,288.435045 354.850695,280.052278 356.384295,279.356589 C356.384295,279.356589 347.670661,273.676085 354.240741,269.84117 C360.810821,266.006255 367.892101,267.621864 367.892101,267.621864 L384.384106,262.090847 L387.550059,261.02719 C387.550059,261.02719 406.139145,261.987356 411.169817,274.636251 C416.200488,287.285146 404.00721,289.774678 404.00721,289.774678 Z" id="Path" fill="#E7C7CA" fill-rule="nonzero"></path>
            <path d="M403.979058,290.030211 L403.063967,290.030211 C408.490399,285.570888 420.765441,271.9955 384.29003,262.101376 L387.46662,261.02719 C387.46662,261.02719 406.118156,261.996861 411.165729,274.770964 C416.213301,287.545068 403.979058,290.030211 403.979058,290.030211 Z" id="Path" fill="#000000" fill-rule="nonzero" opacity="0.1"></path>
            <circle id="Oval" fill="#4B4B5B" fill-rule="nonzero" cx="369.335347" cy="273.26284" r="1.35951662"></circle>
            <circle id="Oval" fill="#4B4B5B" fill-rule="nonzero" cx="362.990937" cy="275.075529" r="1.35951662"></circle>
            <g id="Group" opacity="0.1" transform="translate(263.746224, 36.253776)" fill="#000000" fill-rule="nonzero">
                <path d="M70.7544403,21.9393993 C70.982806,15.4888381 69.8306652,9.06369562 67.3745261,3.09063444 C59.7196683,4.22836325 51.3346547,-1.65381198 44.3628457,1.86493691 C39.2046491,4.46881109 37.5853522,10.9960903 37.296823,16.7492447 C37.2261628,18.2681713 37.2143861,19.7870979 37.2438278,21.3060245 C37.2438278,20.766483 37.2438278,20.221077 37.296823,19.6815355 C37.5676872,13.928381 39.186984,7.40110183 44.3628457,4.79722765 C51.3346547,1.27847876 59.7078915,7.14306025 67.3745261,6.02292518 C69.4546128,11.082328 70.5996468,16.4744486 70.7544403,21.9393993 Z" id="Path"></path>
                <path d="M11.43518,20.8661809 C11.536033,19.5882961 11.5103933,18.3036283 11.3586314,17.0307446 C10.7344661,11.8699129 7.90216868,6.93779989 7.38988204,1.90598898 C6.73038659,7.97583082 10.6108107,13.8052248 11.3586314,19.9630354 C11.43518,20.2797228 11.43518,20.5612227 11.43518,20.8661809 Z" id="Path"></path>
                <path d="M42.4609079,73.4949351 C42.09583,77.8464546 41.0653684,82.4970677 37.7502261,85.3824418 C34.4350838,88.2678159 28.3288625,88.1094722 26.4858083,84.1567443 C25.8969731,82.983828 25.8086478,81.6173805 25.2374776,80.4444642 C23.9302634,77.7584859 20.7152231,76.7145904 17.9064791,75.6648303 C9.92776185,72.6914875 2.23168549,66.8679581 0.518174996,58.5343878 C0.36510308,57.7794306 0.260861077,57.0154634 0.206092328,56.247201 C0.0612849569,57.9929658 0.166363458,59.7503683 0.518174996,61.4666785 C2.23168549,69.7767905 9.93953855,75.6237782 17.9064791,78.597121 C20.7152231,79.6468811 23.9302634,80.6907766 25.2374776,83.3767549 C25.8263129,84.5496712 25.9264148,85.9043896 26.4858083,87.089035 C28.3406393,91.0417629 34.4586372,91.194242 37.7502261,88.3147325 C41.041815,85.435223 42.0663883,80.7787453 42.4609079,76.4272259 C42.6401841,74.1368518 42.7011108,71.8388125 42.6434468,69.5422072 C42.6434468,70.8734672 42.5668982,72.1871335 42.4609079,73.4949351 Z" id="Path"></path>
                <path d="M87.9425405,30.5368758 C87.9425405,31.3872401 87.9425405,32.2317398 87.9425405,33.0762396 C88.2722882,22.168118 92.2881444,11.2013506 91.8936248,0.521947752 C91.5874305,10.397903 88.1662978,20.4967123 87.9425405,30.5368758 Z" id="Path"></path>
                <path d="M75.3061366,74.6619868 C75.4509727,73.9661305 75.4965656,73.2534096 75.4415687,72.5448729 C75.2044058,71.027126 74.6702314,69.5705525 73.8693786,68.2578639 C70.4659111,61.8068242 66.5854869,55.2033055 66.1261955,48.0426515 C66.1261955,48.3476097 66.084977,48.6291096 66.0790887,48.9575262 C65.8435546,56.8981695 70.14794,64.164386 73.8693786,71.1901546 C74.5018487,72.2783224 74.9850676,73.4459894 75.3061366,74.6619868 L75.3061366,74.6619868 Z" id="Path"></path>
                <path d="M91.328343,66.1759374 C90.8887706,73.2810034 88.8587427,80.1981164 85.3869956,86.4204727 C82.2779456,92.0563355 76.784113,97.66874 70.4188042,96.5837924 C69.848519,96.534843 69.3123165,96.292663 68.8996094,95.8976364 C68.7800175,95.7633183 68.6862106,95.6082673 68.6228568,95.440199 C68.5521966,95.8976364 68.4933131,96.3609383 68.457983,96.8301049 C68.3362352,97.5285978 68.4948315,98.2467715 68.8996094,98.8299271 C69.3123165,99.2249538 69.848519,99.4671337 70.4188042,99.5160832 C76.784113,100.601031 82.2779456,94.9886263 85.3869956,89.3527635 C88.8587427,83.1304071 90.8887706,76.2132942 91.328343,69.1082282 C91.3990032,67.7359161 91.4048916,66.3694686 91.3636731,65.0030211 C91.3518964,65.3959481 91.3518964,65.7830105 91.328343,66.1759374 Z" id="Path"></path>
            </g>
            <path d="M356.193353,278.640074 C356.193353,278.640074 370.940224,284.942067 380.664653,270.996979" id="Path" stroke="#000000" opacity="0.1"></path>
            <path d="M358.912387,290.030211 C358.912387,290.030211 371.268946,282.050172 387.009063,289.76896" id="Path" stroke="#000000" opacity="0.1"></path>
            <path d="M278.247734,288.217523 C278.247734,288.217523 283.433185,277.842403 297.280967,285.753564" id="Path" stroke="#000000" opacity="0.1"></path>
            <path d="M261.02719,118.209149 L271.445384,109.000398 C271.445384,109.000398 311.840899,106.410437 313.512519,119.837947 C313.512519,119.837947 327.833121,103.918319 357.951706,107.463688 L370.694864,117.386117 L335.473129,132.49998 L301.246126,144.108761 L276.036452,133.075527 L261.02719,118.209149 Z" id="Path" fill="#000000" fill-rule="nonzero" opacity="0.1"></path>
            <path d="M261.02719,119.115494 L271.445384,109.906742 C271.445384,109.906742 311.840899,107.316781 313.512519,120.744291 C313.512519,120.744291 327.833121,104.824663 357.951706,108.370032 L370.694864,118.292461 L335.473129,133.406324 L301.246126,145.015106 L276.036452,133.981871 L261.02719,119.115494 Z" id="Path" fill="#D5D6DB" fill-rule="nonzero"></path>
            <polygon id="Path" fill="#000000" fill-rule="nonzero" opacity="0.1" points="257.401813 120.543807 261.933435 175.209881 309.969789 177.643505 307.886284 123.210871 307.845771 122.294615"></polygon>
            <polygon id="Path" fill="#FF0000" fill-rule="nonzero" points="257.401813 118.731118 261.933435 173.397192 309.969789 175.830816 307.886284 121.398183 307.845771 120.481926"></polygon>
            <polygon id="Path" fill="#000000" fill-rule="nonzero" opacity="0.1" points="372.507553 118.731118 321.752266 126.240562 321.752266 181.268882 371.351599 174.198074"></polygon>
            <polygon id="Path" fill="#FF0000" fill-rule="nonzero" points="372.507553 118.731118 321.752266 126.240562 321.752266 181.268882 371.351599 174.198074"></polygon>
            <polygon id="Path" fill="#FFFFFF" fill-rule="nonzero" opacity="0.3" points="360.725076 131.41994 333.534743 134.31764 334.128521 143.202417 360.707439 140.417468"></polygon>
            <path d="M264.015407,203.257754 L266.770322,210.727132 C266.770322,210.727132 270.864676,214.264327 275.345069,212.495729 C279.825462,210.727132 283.732645,209.848728 285.680388,208.127293 C287.62813,206.405858 290.359649,197.757416 290.359649,197.757416 C290.359649,197.757416 293.091168,188.324895 295.816838,185.966765 C298.542508,183.608635 305.760269,151.119497 295.816838,154.297077 C285.873407,157.474657 278.269607,186.951284 278.269607,186.951284 C278.269607,186.951284 276.514884,189.108973 273.982234,189.309414 C271.449583,189.509856 266.378434,188.914428 265.401638,191.078012 C264.424842,193.241597 261.090868,198.936481 264.015407,203.257754 Z" id="Path" fill="#BE6F72" fill-rule="nonzero"></path>
            <path d="M321.752266,126.92615 C316.618694,128.098316 311.240509,126.739702 307.250755,123.26284 L309.3356,177.83797 C309.3356,177.83797 314.244514,183.221749 321.752266,181.992843 L321.752266,126.92615 Z" id="Path" fill="#000000" fill-rule="nonzero" opacity="0.1"></path>
            <path d="M321.752266,126.019806 C316.618694,127.191972 311.240509,125.833357 307.250755,122.356495 L309.3356,176.931626 C309.3356,176.931626 314.244514,182.315404 321.752266,181.086498 L321.752266,126.019806 Z" id="Path" fill="#FF0000" fill-rule="nonzero"></path>
            <path d="M321.752266,126.019806 C316.618694,127.191972 311.240509,125.833357 307.250755,122.356495 L309.3356,176.931626 C309.3356,176.931626 314.244514,182.315404 321.752266,181.086498 L321.752266,126.019806 Z" id="Path" fill="#000000" fill-rule="nonzero" opacity="0.1"></path>
            <path d="M323.564955,118.731118 C323.564955,118.731118 344.413766,112.500157 349.848943,113.377757" id="Path" fill="#000000" fill-rule="nonzero" opacity="0.1"></path>
            <path d="M300.906344,116.918429 C300.906344,116.918429 281.491251,112.191377 278.247734,113.532678" id="Path" fill="#000000" fill-rule="nonzero" opacity="0.1"></path>
            <path d="M336.253776,119.637462 C336.253776,119.637462 350.233089,114.083697 355.287009,116.724012" id="Path" fill="#000000" fill-rule="nonzero" opacity="0.1"></path>
            <path d="M329.909366,246.52568 C331.976719,244.8431 334.177319,243.361935 336.485454,242.099491 C339.922435,240.305426 346.223565,235.649547 346.223565,235.649547" id="Path" fill="#000000" fill-rule="nonzero" opacity="0.1"></path>
            <path d="M278.247734,185.800604 C278.247734,185.800604 269.622877,192.752347 267.031288,193.36317 C264.439699,193.973993 262.839879,199.39577 262.839879,199.39577" id="Path" fill="#000000" fill-rule="nonzero" opacity="0.1"></path>
            <path d="M366.794923,202.333724 L364.068038,209.820787 C364.068038,209.820787 359.971859,213.357982 355.483617,211.589385 C350.995375,209.820787 347.098153,208.942384 345.14369,207.220949 C343.189228,205.499514 340.462343,196.851071 340.462343,196.851071 C340.462343,196.851071 337.735458,187.418551 335.002721,185.060421 C332.269985,182.70229 325.054858,150.213152 335.002721,153.390733 C344.950585,156.568313 352.557774,186.04494 352.557774,186.04494 C352.557774,186.04494 354.31328,188.202629 356.847059,188.40307 C359.380838,188.603511 364.454249,188.008083 365.43148,190.171668 C366.408711,192.335252 369.720765,198.030136 366.794923,202.333724 Z" id="Path" fill="#BE6F72" fill-rule="nonzero"></path>
            <path d="M362.537764,188.519637 C362.537764,188.519637 367.998632,192.235112 367.975759,196.676737" id="Path" fill="#000000" fill-rule="nonzero" opacity="0.1"></path>
            <circle id="Oval" fill="#BE6F72" fill-rule="nonzero" cx="315.407855" cy="58.0060423" r="26.2839879"></circle>
            <path d="M298.593774,51.5752565 C301.80262,51.0697074 304.6148,49.196202 307.681557,48.1196797 C314.543278,45.6989917 322.133205,47.3583823 329.07781,49.5411649 C331.741981,50.3797816 334.447595,51.3254558 337.242014,51.3254558 C340.036434,51.3254558 343.002544,50.177562 344.429355,47.7568739 C345.74368,45.5324579 345.489104,42.6419066 344.381992,40.3044854 C343.274881,37.9670643 341.421802,36.0876112 339.550962,34.3152155 C333.393767,28.4746365 325.756477,23.0147062 317.308095,23.6094699 C313.909797,23.8533229 310.659508,25.0725884 307.533548,26.4227019 C303.597465,28.1266994 299.766092,30.065108 296.059851,32.2275951 C293.212149,33.8869857 287.93709,36.1054541 286.297145,39.1387487 C282.567306,45.972583 292.791802,52.4911926 298.593774,51.5752565 Z" id="Path" fill="#3E373A" fill-rule="nonzero"></path>
            <path d="M344.426127,44.7915059 C342.999452,47.3159089 340.033625,48.5129845 337.239473,48.5129845 C334.445321,48.5129845 331.739966,47.5640074 329.07013,46.68946 C322.126189,44.4131555 314.542907,42.6764655 307.675923,45.207071 C304.61538,46.329717 301.797548,48.3083032 298.589009,48.8045003 C293.912357,49.5736059 286.382353,45.3063104 285.565419,39.8791541 C284.647848,46.1498456 293.379573,51.5211797 298.589009,50.6652396 C301.797548,50.1380302 304.61538,48.1842539 307.675923,47.0678103 C314.542907,44.5372048 322.126189,46.2738949 329.07013,48.5501993 C331.739966,49.4247468 334.439401,50.4109386 337.239473,50.3737238 C340.039545,50.336509 342.999452,49.1828507 344.426127,46.6522452 C345.165645,45.2755633 345.456606,43.6837941 345.254901,42.1182437 C345.162544,43.0607917 344.880045,43.9720101 344.426127,44.7915059 L344.426127,44.7915059 Z" id="Path" fill="#000000" fill-rule="nonzero" opacity="0.1"></path>
            <path d="M556.014972,362.537764 C556.014972,362.537764 559.463263,367.041368 554.421664,373.846168 C549.380066,380.650968 545.228161,386.392337 546.902879,390.634441 C546.902879,390.634441 554.508889,378.001106 560.696041,377.820962 C566.883193,377.640818 562.812698,370.132874 556.014972,362.537764 Z" id="Path" fill="#FF0000" fill-rule="nonzero"></path>
            <path d="M556.831879,362.537764 C557.135637,362.972423 557.375284,363.447481 557.543633,363.948695 C563.649421,371.032379 566.908194,377.645752 561.031814,377.808328 C555.56131,377.965099 549.002588,387.620972 547.432024,390.053811 C547.482261,390.250429 547.543132,390.44425 547.614374,390.634441 C547.614374,390.634441 555.308373,378.011549 561.5671,377.831554 C567.825827,377.651558 563.708244,370.126596 556.831879,362.537764 Z" id="Path" fill="#000000" fill-rule="nonzero" opacity="0.1"></path>
            <path d="M563.746224,368.921985 C563.746224,370.402609 563.541138,371.601208 563.296359,371.601208 C563.05158,371.601208 562.839879,370.402609 562.839879,368.921985 C562.839879,367.441362 563.091274,368.140997 563.342669,368.140997 C563.594064,368.140997 563.746224,367.441362 563.746224,368.921985 Z" id="Path" fill="#FFD037" fill-rule="nonzero"></path>
            <path d="M565.604274,370.273845 C564.190267,371.21421 562.95375,371.785663 562.847256,371.546955 C562.740762,371.308247 563.799788,370.34618 565.213795,369.37688 C566.627802,368.407581 566.071665,369.116472 566.17816,369.37688 C566.284654,369.637289 567.024197,369.326245 565.604274,370.273845 Z" id="Path" fill="#FFD037" fill-rule="nonzero"></path>
            <path d="M537.94581,362.537764 C537.94581,362.537764 534.497358,367.041368 539.539192,373.846168 C544.581027,380.650968 548.733126,386.392337 547.052514,390.634441 C547.052514,390.634441 539.451963,378.001106 533.258706,377.820962 C527.065449,377.640818 531.165211,370.132874 537.94581,362.537764 Z" id="Path" fill="#FF0000" fill-rule="nonzero"></path>
            <path d="M538.033669,362.537764 C537.729959,362.972423 537.49035,363.447481 537.322028,363.948695 C531.217214,371.032379 527.958961,377.645752 533.834403,377.808328 C539.298153,377.965099 545.861711,387.620972 547.432024,390.053811 C547.38271,390.251347 547.31983,390.445339 547.243822,390.634441 C547.243822,390.634441 539.556931,378.011549 533.293322,377.831554 C527.029712,377.651558 531.176045,370.126596 538.033669,362.537764 Z" id="Path" fill="#000000" fill-rule="nonzero" opacity="0.1"></path>
            <path d="M532.024169,368.921985 C532.024169,370.402609 532.222639,371.601208 532.474034,371.601208 C532.725428,371.601208 532.930514,370.402609 532.930514,368.921985 C532.930514,367.441362 532.672503,368.140997 532.427724,368.140997 C532.182945,368.140997 532.024169,367.441362 532.024169,368.921985 Z" id="Path" fill="#FFD037" fill-rule="nonzero"></path>
            <path d="M530.166119,370.273845 C531.580126,371.21421 532.816642,371.785663 532.923137,371.546955 C533.029631,371.308247 531.970605,370.34618 530.556598,369.37688 C529.142591,368.407581 529.698727,369.116472 529.592233,369.37688 C529.485739,369.637289 528.746196,369.326245 530.166119,370.273845 Z" id="Path" fill="#FFD037" fill-rule="nonzero"></path>
            <ellipse id="Oval" fill="#FF0000" fill-rule="nonzero" opacity="0.1" cx="547.432024" cy="420.996979" rx="36.2537764" ry="5.89123867"></ellipse>
            <path d="M566.457591,385.478029 L566.283008,386.878114 L566.038592,388.856747 L565.939662,389.684071 L565.695246,391.662704 L565.590497,392.490027 L565.3519,394.462875 L562.587675,416.968382 C562.343259,418.975942 559.043646,420.543807 555.057342,420.543807 L540.712465,420.543807 C536.726161,420.543807 533.432368,418.975942 533.182132,416.968382 L530.417907,394.462875 L530.173491,392.490027 L530.074561,391.662704 L529.830145,389.684071 L529.725395,388.856747 L529.486799,386.878114 L529.312216,385.478029 C529.17837,384.320933 530.959113,383.383686 533.217049,383.383686 L562.558577,383.383686 C564.810694,383.383686 566.597257,384.33829 566.457591,385.478029 Z" id="Path" fill="#65617D" fill-rule="nonzero"></path>
            <polygon id="Path" fill="#9D9CB5" fill-rule="nonzero" points="565.558912 386.102719 565.323833 387.915408 529.545949 387.915408 529.305136 386.102719"></polygon>
            <polygon id="Path" fill="#9D9CB5" fill-rule="nonzero" points="565.558912 389.728097 565.319363 391.540785 529.550528 391.540785 529.305136 389.728097"></polygon>
            <polygon id="Path" fill="#9D9CB5" fill-rule="nonzero" points="565.558912 391.540785 565.308722 393.353474 529.549369 393.353474 529.305136 391.540785"></polygon>
        </g>
    </g>
</svg>